<svg width="17" height="22" viewBox="0 0 17 22" fill="none" xmlns="http://www.w3.org/2000/svg">
<path d="M1.437 2.66835C1.29168 2.60499 1.16471 2.52086 1.06343 2.42082C0.96215 2.32079 0.888564 2.20683 0.846927 2.08554C0.80529 1.96425 0.796429 1.83802 0.820855 1.71417C0.845281 1.59032 0.90251 1.47129 0.989233 1.36397C1.07596 1.25665 1.19046 1.16317 1.32611 1.08892C1.46176 1.01467 1.61588 0.961132 1.77956 0.931401C1.94323 0.901671 2.11321 0.896336 2.27968 0.915706C2.44615 0.935075 2.6058 0.978765 2.7494 1.04425C5.0393 2.06468 6.7274 3.29855 7.8154 5.00348C8.8864 6.68315 9.3182 8.73538 9.3182 11.3281V18.1984L13.9422 14.7633C14.0589 14.6702 14.1997 14.5956 14.3561 14.5438C14.5125 14.492 14.6813 14.4642 14.8525 14.4619C15.0237 14.4597 15.1938 14.4831 15.3525 14.5307C15.5113 14.5784 15.6555 14.6493 15.7766 14.7392C15.8976 14.8292 15.9931 14.9363 16.0572 15.0542C16.1213 15.1722 16.1528 15.2985 16.1498 15.4257C16.1468 15.5529 16.1093 15.6783 16.0396 15.7945C15.9699 15.9107 15.8695 16.0152 15.7442 16.1019L8.94419 21.1536C8.70513 21.331 8.38107 21.4306 8.0432 21.4306C7.70532 21.4306 7.38126 21.331 7.1422 21.1536L0.342196 16.1019C0.11698 15.9224 -0.00562933 15.6849 0.00019864 15.4395C0.00602661 15.1941 0.139837 14.96 0.373439 14.7865C0.607041 14.6129 0.922196 14.5135 1.25251 14.5092C1.58282 14.5049 1.9025 14.596 2.1442 14.7633L6.7682 18.1984V11.3281C6.7682 8.86925 6.3517 7.13401 5.5102 5.81427C4.684 4.51852 3.3971 3.54229 1.437 2.66962" fill="#01571F"/>
</svg>
